<?xml version="1.0" encoding="utf-8"?>
<!-- Generator: Adobe Illustrator 16.0.0, SVG Export Plug-In . SVG Version: 6.00 Build 0)  -->
<!DOCTYPE svg PUBLIC "-//W3C//DTD SVG 1.1//EN" "http://www.w3.org/Graphics/SVG/1.1/DTD/svg11.dtd" [
	<!ENTITY ns_flows "http://ns.adobe.com/Flows/1.0/">
	<!ENTITY ns_extend "http://ns.adobe.com/Extensibility/1.0/">
	<!ENTITY ns_ai "http://ns.adobe.com/AdobeIllustrator/10.0/">
	<!ENTITY ns_graphs "http://ns.adobe.com/Graphs/1.0/">
]>
<svg version="1.1" id="Livello_1" xmlns:x="&ns_extend;" xmlns:i="&ns_ai;" xmlns:graph="&ns_graphs;"
	 xmlns="http://www.w3.org/2000/svg" xmlns:xlink="http://www.w3.org/1999/xlink" xmlns:a="http://ns.adobe.com/AdobeSVGViewerExtensions/3.0/"
	 x="0px" y="0px" width="50px" height="50px" viewBox="0 0 50 50" enable-background="new 0 0 50 50" xml:space="preserve">
<g>
	<defs>
		<circle id="SVGID_1_" cx="25" cy="25" r="25"/>
	</defs>
	<clipPath id="SVGID_2_">
		<use xlink:href="#SVGID_1_"  overflow="visible"/>
	</clipPath>
	<g clip-path="url(#SVGID_2_)">
		<defs>
			<rect id="SVGID_3_" x="-10.98" y="-0.36" width="71.254" height="50.36"/>
		</defs>
		<clipPath id="SVGID_4_">
			<use xlink:href="#SVGID_3_"  overflow="visible"/>
		</clipPath>
		<rect x="-10.98" y="-0.36" clip-path="url(#SVGID_4_)" fill="#FFFFFF" width="71.254" height="50.36"/>
		<polygon clip-path="url(#SVGID_4_)" fill="#BD0034" points="36.731,17.849 60.273,1.883 60.273,-0.36 58.647,-0.36 31.804,17.849 
					"/>
		<polygon clip-path="url(#SVGID_4_)" fill="#BD0034" points="35.617,32.807 60.273,49.52 60.273,46.177 40.544,32.807 		"/>
		<polygon clip-path="url(#SVGID_4_)" fill="#BD0034" points="-10.98,3.478 10.109,17.849 15.038,17.849 -10.98,0.128 		"/>
		<polygon clip-path="url(#SVGID_4_)" fill="#BD0034" points="13.923,32.807 -10.98,49.708 -10.98,50 -6.484,50 18.851,32.807 		"/>
		<polygon clip-path="url(#SVGID_4_)" fill="#1A237B" points="55.399,-0.36 30.451,-0.36 30.451,16.572 		"/>
		<polygon clip-path="url(#SVGID_4_)" fill="#1A237B" points="19.434,-0.36 -5.414,-0.36 19.434,16.572 		"/>
		<polygon clip-path="url(#SVGID_4_)" fill="#1A237B" points="60.273,17.849 60.273,6.296 43.351,17.849 		"/>
		<polygon clip-path="url(#SVGID_4_)" fill="#1A237B" points="60.273,44.23 60.273,32.807 43.351,32.807 		"/>
		<polygon clip-path="url(#SVGID_4_)" fill="#1A237B" points="-4.004,50 19.434,50 19.434,34.083 		"/>
		<polygon clip-path="url(#SVGID_4_)" fill="#1A237B" points="30.451,50 53.961,50 30.451,34.083 		"/>
		<polygon clip-path="url(#SVGID_4_)" fill="#1A237B" points="-10.98,32.807 -10.98,44.748 6.531,32.807 		"/>
		<polygon clip-path="url(#SVGID_4_)" fill="#1A237B" points="-10.98,17.849 6.531,17.849 -10.98,5.886 		"/>
		<polygon clip-path="url(#SVGID_4_)" fill="#BD0034" points="21.637,-0.36 21.637,20.841 -10.98,20.841 -10.98,29.814 
			21.637,29.814 21.637,50 28.246,50 28.246,29.814 60.273,29.814 60.273,20.841 28.246,20.841 28.246,-0.36 		"/>
	</g>
</g>
</svg>
